<svg width="1635" height="250" viewBox="0 0 1635 250" fill="none" xmlns="http://www.w3.org/2000/svg">
<path d="M348.151 52.4255C421.56 52.4255 451.247 93.448 451.247 136.63C451.247 197.084 402.398 232.709 351.929 232.709H263.677V228.93C280.14 226.771 287.157 222.723 287.157 211.118V74.0163C287.157 62.4112 280.14 58.3629 263.677 56.2038V52.4255H348.151ZM351.929 225.152C384.855 225.152 407.526 193.845 407.526 142.567C407.526 102.354 383.236 59.9822 343.563 59.9822H328.989V212.197C328.989 221.374 334.387 225.152 351.929 225.152Z" fill="white"/>
<path d="M598.296 217.055L602.345 217.325V221.104L548.907 236.757H545.129L543.24 208.419V204.371C536.493 224.612 519.49 236.757 497.629 236.757C475.229 236.757 460.115 222.723 460.115 201.942C460.115 173.604 480.087 161.729 529.746 152.553L543.24 150.124V138.789C543.24 113.959 534.334 98.8457 519.22 98.8457C499.249 98.8457 491.962 122.326 500.328 138.789L466.592 149.314C451.479 117.468 482.516 91.2889 524.888 91.2889C562.132 91.2889 583.183 110.721 583.183 140.678V202.212C583.183 211.388 589.12 215.706 598.296 217.055ZM543.24 195.465V157.951L530.825 160.379C512.203 164.158 500.328 174.144 500.328 190.876C500.328 204.371 508.425 214.087 520.03 214.087C529.476 214.087 539.192 206.53 543.24 195.465Z" fill="white"/>
<path d="M691.36 213.007L693.519 215.166C687.312 224.072 675.707 236.757 652.497 236.757C628.477 236.757 613.094 221.643 613.094 196.004V102.894H598.25V99.1156L649.258 57.8232H653.037V95.3372H692.17V102.894H653.037V194.655C653.037 208.149 660.863 219.484 674.358 219.484C682.184 219.484 686.772 215.976 691.36 213.007Z" fill="white"/>
<path d="M834.593 217.055L838.642 217.325V221.104L785.204 236.757H781.426L779.537 208.419V204.371C772.79 224.612 755.787 236.757 733.926 236.757C711.526 236.757 696.412 222.723 696.412 201.942C696.412 173.604 716.384 161.729 766.043 152.553L779.537 150.124V138.789C779.537 113.959 770.631 98.8457 755.517 98.8457C735.546 98.8457 728.259 122.326 736.625 138.789L702.889 149.314C687.776 117.468 718.813 91.2889 761.185 91.2889C798.429 91.2889 819.48 110.721 819.48 140.678V202.212C819.48 211.388 825.417 215.706 834.593 217.055ZM779.537 195.465V157.951L767.122 160.379C748.5 164.158 736.625 174.144 736.625 190.876C736.625 204.371 744.722 214.087 756.327 214.087C765.773 214.087 775.489 206.53 779.537 195.465Z" fill="white"/>
<path d="M1051.81 56.2038C1035.34 58.3629 1028.33 62.4112 1028.33 74.0163V211.118C1028.33 222.723 1035.34 226.771 1051.81 228.93V232.709H963.014V228.93C979.477 226.771 986.494 222.723 986.494 211.118V144.186H909.037V211.118C909.037 222.723 916.054 226.771 932.517 228.93V232.709H843.725V228.93C860.188 226.771 867.205 222.723 867.205 211.118V74.0163C867.205 62.4112 860.188 58.3629 843.725 56.2038V52.4254H932.517V56.2038C916.054 58.3629 909.037 62.4112 909.037 74.0163V136.63H986.494V74.0163C986.494 62.4112 979.477 58.3629 963.014 56.2038V52.4254H1051.81V56.2038Z" fill="white"/>
<path d="M1197.32 217.055L1201.37 217.325V221.104L1147.93 236.757H1144.15L1142.26 208.419V204.371C1135.52 224.612 1118.51 236.757 1096.65 236.757C1074.25 236.757 1059.14 222.723 1059.14 201.942C1059.14 173.604 1079.11 161.729 1128.77 152.553L1142.26 150.124V138.789C1142.26 113.959 1133.36 98.8457 1118.24 98.8457C1098.27 98.8457 1090.99 122.326 1099.35 138.789L1065.62 149.314C1050.5 117.468 1081.54 91.2889 1123.91 91.2889C1161.16 91.2889 1182.21 110.721 1182.21 140.678V202.212C1182.21 211.388 1188.14 215.706 1197.32 217.055ZM1142.26 195.465V157.951L1129.85 160.379C1111.23 164.158 1099.35 174.144 1099.35 190.876C1099.35 204.371 1107.45 214.087 1119.05 214.087C1128.5 214.087 1138.22 206.53 1142.26 195.465Z" fill="white"/>
<path d="M1258.73 236.757L1201.51 115.309C1195.57 103.704 1190.99 100.195 1181.81 99.1156V95.3372H1260.62V99.1156C1246.58 99.6553 1241.46 105.323 1246.04 115.309L1278.43 186.558L1310.55 115.309C1314.86 105.863 1310.82 99.9252 1298.13 99.1156V95.3372H1337.53V99.1156C1328.63 100.195 1324.58 103.973 1319.18 115.309L1262.51 236.757H1258.73Z" fill="white"/>
<path d="M1416.38 208.149C1433.11 208.149 1446.33 198.973 1453.62 187.098L1456.86 188.178C1452 214.087 1432.3 236.487 1396.94 236.487C1351.87 236.487 1328.66 203.291 1328.66 167.127C1328.66 121.786 1356.46 91.5588 1398.56 91.5588C1438.51 91.5588 1456.59 115.039 1456.86 151.203H1367.53V152.013C1366.18 188.448 1386.69 208.149 1416.38 208.149ZM1394.25 99.1156C1378.05 99.1156 1370.23 120.167 1368.07 143.647H1417.19C1416.65 125.025 1409.9 99.1156 1394.25 99.1156Z" fill="white"/>
<path d="M1609.88 212.197C1609.88 222.993 1613.38 226.231 1623.64 229.2V232.709H1555.9V229.2C1566.15 226.231 1569.66 222.993 1569.66 212.197V139.059C1569.66 125.025 1562.38 116.658 1550.5 116.658C1540.52 116.658 1532.69 120.436 1523.51 129.343V212.197C1523.51 222.993 1527.29 226.231 1537.55 229.2V232.709H1469.54V229.2C1479.79 226.231 1483.57 222.993 1483.57 212.197V125.834C1483.57 117.468 1478.44 112.34 1468.73 110.991L1464.68 110.721V106.942L1519.73 91.2889H1523.51V121.516C1536.47 105.053 1550.77 91.5588 1569.93 91.5588C1596.65 91.5588 1609.88 109.101 1609.88 136.63V212.197Z" fill="white"/>
<path d="M213.318 72.7369C210.683 59.9907 193.089 66.4048 185.94 71.3112C181.584 74.3031 182.644 75.5121 176.353 75.5531C176.244 75.5531 175.791 75.5882 175.173 75.638C174.248 75.7141 173.8 74.5402 174.535 73.9752C174.543 73.9693 174.552 73.9606 174.561 73.9547C183.63 66.9844 191.71 58.2196 195.981 46.5069C199.219 37.6338 201.956 27.4053 198.276 17.6012C196.962 14.0971 193.868 10.7305 190.621 13.3242C188.182 15.2739 187.638 20.11 186.915 23.1956C186.877 23.3624 186.833 23.5381 186.722 23.6523C186.631 23.7459 186.482 23.7781 186.373 23.7137C186.347 23.6991 186.324 23.6786 186.303 23.6523C186.256 23.5908 186.236 23.5088 186.218 23.4298C185.044 18.2131 180.756 13.4296 176.397 11.4097C174.145 10.3646 170.395 11.3248 170.123 14.2259C169.769 18.0052 172.725 22.0949 174.745 24.9813C175.764 26.4363 177.263 28.304 177.887 30.2332C178.141 31.0236 177.316 31.7262 176.578 31.3485C175.17 30.6284 173.75 29.475 172.336 29.0212C170.202 28.3333 168.513 29.0066 168.059 31.4891C167.881 32.458 167.989 33.4856 168.32 34.4429C169.054 36.5623 170.284 38.2808 171.765 39.7855C175 43.073 178.583 46.3547 176.985 51.548C175.779 55.4649 171.932 58.4216 168.129 56.6827C166.285 55.8396 164.675 54.25 163.34 52.5872C161.265 50.0023 158.009 46.4015 154.909 48.7669C151.888 51.0708 153.548 56.2319 154.379 59.5955C155.369 63.5944 156.297 69.2561 153.791 72.529C151.803 75.1198 147.066 75.9424 144.247 74.2679C139.657 71.5425 137.529 65.7812 134.068 62.1278C132.022 59.9673 129.27 59.3145 127.531 61.8409C125.675 64.5342 126.51 67.646 126.934 70.8282C127.201 72.8276 126.908 74.8417 126.264 76.6509C124.191 82.4824 114.323 80.7786 112.745 74.6339C111.881 71.2732 112.704 67.807 111.946 64.4493C111.164 60.9832 108.011 56.712 104.902 59.821C103.345 61.3784 103.283 63.3456 102.976 65.3246C102.833 66.2555 101.547 66.396 101.196 65.5207C99.8026 62.0605 99.2874 57.6488 98.254 54.3232C96.9659 50.1867 93.1924 46.3312 90.0718 50.5936C88.9213 52.1657 88.5348 54.3056 88.3855 56.3958C88.2333 58.527 88.2977 60.7314 88.7925 62.8567C88.8891 63.2695 89.4101 65.2485 89.9166 66.7737C90.1771 67.5553 89.3574 68.2696 88.6256 67.8949C86.9921 67.0576 85.502 65.7549 83.807 65.0787C78.2331 62.8567 76.5645 68.6267 78.6927 73.4922C81.7051 80.3746 87.3961 85.1288 93.4325 88.2612C103.772 93.6301 114.779 95.4188 125.579 94.6547C130.447 94.3093 135.272 93.4457 139.976 92.1547C143.331 91.2355 146.569 90.1084 149.71 88.8027C150.503 88.4749 151.276 89.3121 150.89 90.0791C150.407 91.0335 149.903 92.061 149.37 93.1705C148.217 95.5798 140.793 100.293 140.608 100.337C138.776 100.773 136.847 100.237 135.134 99.4528C130.951 97.5353 127.37 95.4891 122.572 95.7525C115.359 96.1507 111.211 100.89 106.158 105.343C104.574 106.739 102.619 109.55 100.567 110.103C98.2833 110.721 94.2112 109.462 91.8019 109.318C85.9792 108.967 79.934 108.926 74.2811 110.554C68.1305 112.325 50.2262 122.656 46.0663 127.431C40.9403 133.318 42.9339 138.274 50.2496 138.002C50.8439 137.978 51.3035 138.517 51.1922 139.102L48.3116 154.135C48.3028 154.185 48.297 154.231 48.294 154.281C48.1301 158.892 48.3204 163.45 48.9644 167.985C49.023 168.389 48.8151 168.79 48.4404 168.956C46.3356 169.884 39.9098 169.949 39.0111 173.939C38.531 176.073 39.702 204.425 39.3595 204.417C31.8886 204.206 17.8983 206.762 14.2214 214.282C12.1195 218.58 15.3192 220.705 18.6156 222.16C19.3943 222.502 19.3416 223.618 18.5365 223.887C14.643 225.205 9.50821 227.86 11.4081 232.008C13.3695 236.288 19.7368 237.049 23.8059 237.573C29.9711 238.363 36.2007 238.811 42.4099 239.066C59.6116 239.772 76.8455 239.157 94.056 239.608C118.696 240.255 143.665 240.41 167.266 232.324C172.087 230.673 181.645 228.434 182.161 222.125C182.503 217.921 174.789 216.513 171.754 216.132C170.928 216.027 168.226 216.094 166.323 215.772C165.486 215.632 165.272 214.549 165.978 214.077C168.835 212.169 171.127 208.328 167.67 205.828C162.731 202.253 150.711 203.615 144.768 203.96C142.959 204.065 142.312 174.463 142.681 169.598C142.702 169.308 142.86 169.05 143.103 168.889C145.155 167.522 147.406 167.174 149.42 165.578C152.634 163.031 154.921 159.152 157.031 155.704C158.176 153.83 159.426 151.913 160.357 149.925C161.241 148.037 161.554 145.671 162.936 144.05C164.567 142.138 166.408 142.041 167.848 139.644C169.192 137.41 170.351 135.071 171.42 132.697C172.957 129.281 173.829 120.282 177.483 118.475C178.926 117.761 181.186 118.549 182.866 117.928C184.403 117.36 185.668 116.321 186.748 115.112C191.49 109.798 192.413 101.865 194.193 95.2197C194.248 95.009 194.38 94.8245 194.556 94.6986C196.189 93.5247 198.347 93.8087 200.203 93.15C208.639 90.1523 215.299 82.2745 213.326 72.7398L213.318 72.7369ZM132.332 205.263C129.771 205.274 127.268 205.907 124.765 206.445C124.297 206.545 123.805 206.293 123.661 205.834C123.038 203.825 119.642 203.231 117.742 203.058C108.623 202.23 99.7733 205.28 90.7538 205.263C90.5109 205.263 88.7924 199.191 88.5875 198.565C87.3082 194.659 86.8955 190.552 86.4476 186.489C85.944 181.922 85.6162 177.311 85.9763 172.721C86.2836 168.813 81.8046 171.556 80.2209 172.73C76.8777 175.209 72.6593 178.722 70.5017 182.323C68.6428 185.432 72.185 190.816 73.5785 193.614C73.8508 194.159 75.5809 196.914 76.4532 198.887C76.7899 199.645 76.0434 200.424 75.2676 200.128C68.9062 197.692 58.7451 198.328 56.4997 205.383C56.3592 205.828 55.8937 206.085 55.4341 205.992L51.8714 205.257C51.362 205.151 51.0371 204.648 51.1542 204.141C52.3076 199.062 54.8457 193.743 57.5946 189.393C60.525 184.756 64.4155 180.631 68.2095 176.702C71.1487 173.661 74.0937 170.461 77.4896 167.92C79.8579 166.149 82.2554 164.161 85.1507 163.333C87.6537 162.616 90.2123 163.213 92.7094 163.611C99.8202 164.747 107.499 163.599 114.226 166.62C117.979 168.307 120.005 172.174 121.931 175.593C124.504 180.154 125.617 185.312 127.616 190.116C129.543 194.736 131.726 199.273 133.202 204.065C133.383 204.66 132.947 205.266 132.327 205.269L132.332 205.263ZM178.996 88.0416C178.018 90.1845 174.286 93.0271 171.78 91.3935C169.561 89.9445 172.254 87.8308 173.487 86.9672C174.511 86.2471 175.714 85.4537 177.011 85.2957C178.01 85.1756 178.791 85.6996 179.081 86.4637C179.257 86.9292 179.251 87.4854 178.999 88.0416H178.996Z" fill="white"/>
<path d="M156.725 176.457C154.986 179.542 152.743 182.338 150.639 185.175C149.514 186.691 148.396 188.216 147.351 189.788C146.37 191.264 145.012 192.736 145.223 194.642C145.463 196.811 145.659 199.177 146.212 201.293C146.347 201.811 150.173 198.629 150.416 198.386C153.715 195.055 157.073 191.782 160.337 188.412C161.008 187.721 161.675 187.028 162.337 186.328C165.504 182.994 168.607 179.595 171.819 176.304C174.412 173.646 177.489 170.578 177.767 166.653C177.931 164.352 176.427 161.752 175.396 159.791C174.228 157.569 172.527 155.704 170.838 153.871C169.661 152.592 168.56 151.09 167.267 149.858C166.889 149.498 165.648 148.174 165.171 148.479C164.767 148.739 164.834 149.755 164.731 150.18C163.601 154.867 160.285 158.705 157.372 162.399C156.748 163.189 156.104 163.965 155.44 164.72C154.845 165.4 153.841 165.938 154.714 166.603C155.683 167.341 157.345 167.61 158.487 167.987C158.853 168.108 160.744 168.497 160.823 168.986C160.855 169.188 160.776 169.387 160.697 169.574C159.655 172.001 158.025 174.156 156.728 176.451L156.725 176.457Z" fill="white"/>
</svg>
