<svg width="280" height="280" viewBox="0 0 280 280" fill="none" xmlns="http://www.w3.org/2000/svg">
<g clip-path="url(#clip0_409_50)">
<path d="M258.681 84.0191C255.586 70.3889 234.917 77.2478 226.518 82.4945C221.401 85.6939 222.646 86.9868 215.255 87.0306C215.128 87.0306 214.595 87.0682 213.869 87.1214C212.782 87.2028 212.256 85.9475 213.119 85.3433C213.13 85.337 213.14 85.3276 213.15 85.3214C223.805 77.8676 233.297 68.4949 238.315 55.9697C242.118 46.4812 245.334 35.5432 241.011 25.0591C239.467 21.3119 235.831 17.7118 232.017 20.4854C229.153 22.5703 228.513 27.7419 227.663 31.0415C227.619 31.2199 227.567 31.4078 227.436 31.5299C227.33 31.63 227.154 31.6645 227.027 31.5956C226.996 31.5799 226.969 31.558 226.945 31.5299C226.89 31.4641 226.866 31.3765 226.845 31.2919C225.466 25.7134 220.427 20.5981 215.307 18.4381C212.662 17.3205 208.256 18.3473 207.936 21.4496C207.52 25.4911 210.994 29.8644 213.367 32.9511C214.564 34.507 216.325 36.5042 217.057 38.5672C217.356 39.4125 216.386 40.1638 215.52 39.76C213.866 38.9899 212.198 37.7564 210.536 37.2712C208.029 36.5355 206.045 37.2556 205.512 39.9102C205.302 40.9464 205.429 42.0452 205.818 43.0689C206.681 45.3354 208.126 47.173 209.866 48.7821C213.666 52.2976 217.876 55.8069 215.998 61.3605C214.581 65.5491 210.062 68.7109 205.594 66.8514C203.428 65.9498 201.536 64.2499 199.968 62.4718C197.53 59.7076 193.705 55.857 190.063 58.3865C186.514 60.8502 188.464 66.3693 189.441 69.9662C190.603 74.2425 191.693 80.2969 188.749 83.7968C186.414 86.5673 180.85 87.447 177.538 85.6563C172.145 82.7418 169.645 76.581 165.58 72.6741C163.176 70.3638 159.943 69.6657 157.9 72.3673C155.72 75.2474 156.7 78.5751 157.199 81.978C157.512 84.1161 157.168 86.2699 156.411 88.2046C153.976 94.4405 142.383 92.6186 140.529 86.0477C139.515 82.4538 140.481 78.7473 139.59 75.1566C138.672 71.4501 134.968 66.8827 131.316 70.2073C129.486 71.8727 129.414 73.9764 129.053 76.0926C128.884 77.0881 127.374 77.2384 126.962 76.3024C125.325 72.6021 124.719 67.8844 123.505 64.3282C121.992 59.9048 117.559 55.7819 113.893 60.3399C112.541 62.021 112.087 64.3094 111.912 66.5446C111.733 68.8236 111.809 71.1809 112.39 73.4536C112.503 73.895 113.116 76.0112 113.711 77.6422C114.017 78.4781 113.054 79.2419 112.194 78.8412C110.275 77.9459 108.524 76.5528 106.533 75.8297C99.985 73.4536 98.0247 79.6239 100.525 84.8268C104.064 92.1866 110.75 97.2705 117.841 100.62C129.988 106.362 142.919 108.274 155.606 107.457C161.326 107.088 166.993 106.164 172.52 104.784C176.461 103.801 180.265 102.596 183.955 101.199C184.887 100.849 185.795 101.744 185.341 102.564C184.774 103.585 184.182 104.684 183.556 105.87C182.201 108.446 173.48 113.487 173.263 113.534C171.11 114 168.844 113.427 166.832 112.588C161.917 110.538 157.711 108.349 152.074 108.631C143.6 109.057 138.727 114.125 132.791 118.887C130.93 120.38 128.633 123.385 126.222 123.977C123.54 124.637 118.756 123.291 115.925 123.138C109.085 122.762 101.983 122.718 95.3421 124.459C88.1164 126.353 67.0826 137.401 62.1956 142.506C56.1736 148.802 58.5157 154.102 67.1101 153.811C67.8083 153.786 68.3482 154.362 68.2175 154.988L64.8334 171.063C64.8231 171.116 64.8162 171.166 64.8128 171.219C64.6202 176.15 64.8437 181.024 65.6003 185.873C65.6691 186.305 65.4249 186.734 64.9847 186.913C62.512 187.905 54.963 187.974 53.9072 192.241C53.3432 194.523 54.7189 224.842 54.3165 224.832C45.5398 224.607 29.1041 227.34 24.7845 235.382C22.3152 239.978 26.0742 242.251 29.9467 243.806C30.8615 244.173 30.7996 245.365 29.8538 245.653C25.2798 247.062 19.2475 249.902 21.4795 254.338C23.7837 258.914 31.2639 259.728 36.0443 260.289C43.2872 261.134 50.6056 261.613 57.9001 261.885C78.1085 262.64 98.3548 261.982 118.574 262.464C147.521 263.156 176.853 263.322 204.58 254.676C210.244 252.91 221.473 250.515 222.078 243.769C222.481 239.274 213.418 237.768 209.852 237.361C208.882 237.248 205.708 237.32 203.472 236.976C202.489 236.825 202.238 235.667 203.067 235.163C206.423 233.122 209.116 229.015 205.054 226.341C199.253 222.519 185.131 223.975 178.15 224.344C176.025 224.457 175.265 192.801 175.698 187.598C175.722 187.288 175.908 187.013 176.193 186.841C178.604 185.379 181.249 185.006 183.615 183.3C187.391 180.576 190.077 176.429 192.557 172.741C193.901 170.737 195.37 168.687 196.463 166.561C197.502 164.542 197.87 162.013 199.493 160.278C201.409 158.234 203.572 158.131 205.264 155.567C206.843 153.178 208.205 150.677 209.46 148.138C211.266 144.485 212.29 134.862 216.582 132.93C218.278 132.166 220.933 133.008 222.907 132.345C224.713 131.737 226.198 130.626 227.467 129.333C233.039 123.651 234.122 115.168 236.213 108.061C236.278 107.836 236.433 107.639 236.64 107.504C238.559 106.249 241.093 106.552 243.274 105.848C253.185 102.642 261.009 94.2183 258.691 84.0222L258.681 84.0191ZM163.54 225.737C160.531 225.75 157.591 226.426 154.65 227.002C154.1 227.108 153.522 226.839 153.354 226.348C152.621 224.2 148.632 223.565 146.4 223.38C135.687 222.494 125.29 225.756 114.694 225.737C114.409 225.737 112.39 219.245 112.149 218.575C110.646 214.398 110.161 210.006 109.635 205.661C109.044 200.778 108.659 195.847 109.082 190.938C109.443 186.759 104.181 189.693 102.32 190.948C98.3926 193.599 93.4368 197.356 90.9022 201.207C88.7183 204.531 92.8797 210.288 94.5167 213.281C94.8366 213.863 96.8691 216.809 97.894 218.919C98.2895 219.73 97.4125 220.562 96.5011 220.246C89.0278 217.642 77.0905 218.321 74.4527 225.866C74.2876 226.341 73.7408 226.617 73.2009 226.517L69.0154 225.731C68.417 225.618 68.0353 225.08 68.1728 224.538C69.5278 219.107 72.5096 213.419 75.7389 208.767C79.1815 203.808 83.7522 199.397 88.2093 195.196C91.6622 191.943 95.122 188.522 99.1114 185.804C101.894 183.91 104.71 181.785 108.112 180.899C111.052 180.132 114.058 180.771 116.992 181.196C125.345 182.411 134.366 181.184 142.269 184.414C146.678 186.218 149.058 190.353 151.321 194.009C154.344 198.887 155.651 204.403 158 209.54C160.263 214.48 162.829 219.332 164.562 224.457C164.775 225.092 164.263 225.74 163.534 225.743L163.54 225.737ZM218.361 100.385C217.212 102.677 212.827 105.717 209.883 103.97C207.276 102.42 210.44 100.16 211.888 99.2365C213.092 98.4664 214.505 97.618 216.029 97.449C217.202 97.3206 218.12 97.881 218.46 98.698C218.667 99.1958 218.66 99.7906 218.364 100.385H218.361Z" fill="white"/>
<path d="M192.197 194.933C190.154 198.233 187.519 201.222 185.047 204.256C183.726 205.878 182.412 207.509 181.184 209.19C180.032 210.767 178.437 212.342 178.684 214.38C178.966 216.7 179.197 219.229 179.847 221.493C180.005 222.047 184.5 218.644 184.785 218.384C188.661 214.821 192.606 211.322 196.44 207.718C197.228 206.98 198.012 206.238 198.789 205.489C202.511 201.924 206.156 198.289 209.929 194.771C212.976 191.928 216.59 188.647 216.917 184.449C217.11 181.989 215.342 179.209 214.131 177.111C212.759 174.735 210.761 172.741 208.777 170.781C207.394 169.413 206.101 167.807 204.581 166.49C204.137 166.104 202.679 164.689 202.119 165.015C201.644 165.294 201.723 166.38 201.603 166.834C200.275 171.846 196.379 175.95 192.957 179.901C192.224 180.746 191.467 181.575 190.687 182.383C189.989 183.109 188.809 183.685 189.834 184.396C190.972 185.185 192.926 185.473 194.267 185.877C194.697 186.005 196.918 186.421 197.011 186.944C197.049 187.16 196.956 187.373 196.863 187.573C195.639 190.169 193.724 192.473 192.2 194.927L192.197 194.933Z" fill="white"/>
</g>
<defs>
<clipPath id="clip0_409_50">
<rect width="280" height="280" fill="white"/>
</clipPath>
</defs>
</svg>
